<svg width="32" height="32" viewBox="0 0 32 32" fill="none" xmlns="http://www.w3.org/2000/svg">
<rect width="32" height="32" fill="#313131"/>
<path d="M2.54102 15.03L8.491 12.9401V14.38L4.01102 15.8199L8.491 17.26V18.73L2.54102 16.65V15.03Z" fill="#93D4F5"/>
<path d="M10.2106 14.35H9.39062V13.11H10.2106V12.6301C10.2106 11.4501 10.7706 10.9101 12.2106 10.9101C12.4852 10.9059 12.7596 10.9259 13.0306 10.97V12.0601C12.8911 12.0433 12.7501 12.0433 12.6106 12.0601C12.0706 12.0601 11.8306 12.29 11.8306 12.72V13.1401H13.0206V14.3801H11.8706V19.1601H10.2306L10.2106 14.35Z" fill="#F2777C"/>
<path d="M13.2211 16.13C13.1749 15.7277 13.216 15.3203 13.3414 14.9353C13.4667 14.5503 13.6736 14.1968 13.9478 13.8989C14.222 13.601 14.5571 13.3656 14.9304 13.2087C15.3037 13.0519 15.7064 12.9773 16.1111 12.99C16.5042 12.9711 16.8968 13.0369 17.2623 13.1828C17.6279 13.3288 17.9578 13.5514 18.2299 13.8358C18.5019 14.1202 18.7098 14.4596 18.8394 14.8313C18.969 15.2029 19.0173 15.5981 18.9811 15.99V16.5H14.8411C14.8411 17.5 15.3811 18.02 16.2211 18.02C16.4699 18.0399 16.7188 17.9823 16.9336 17.8552C17.1485 17.7281 17.3187 17.5377 17.4211 17.31H18.9211V17.37C18.7668 17.9626 18.406 18.4806 17.9037 18.8308C17.4013 19.181 16.7904 19.3403 16.1811 19.28C15.7697 19.3034 15.3582 19.2363 14.9755 19.0835C14.5928 18.9307 14.2483 18.6959 13.9661 18.3956C13.6839 18.0953 13.471 17.7369 13.3423 17.3454C13.2136 16.954 13.1722 16.5391 13.2211 16.13ZM14.8611 15.48H17.4111C17.4124 15.3128 17.3805 15.1471 17.3171 14.9924C17.2538 14.8377 17.1603 14.6972 17.0421 14.579C16.9239 14.4608 16.7834 14.3673 16.6287 14.3039C16.474 14.2406 16.3082 14.2086 16.1411 14.2099C15.8033 14.2099 15.4793 14.3435 15.2395 14.5814C14.9998 14.8193 14.8637 15.1422 14.8611 15.48Z" fill="#F2777C"/>
<path d="M20.751 21.1H19.291L21.291 11.03H22.741L20.751 21.1Z" fill="#93D4F5"/>
<path d="M29.4705 16.65L23.5205 18.73V17.3L28.0005 15.85L23.5205 14.41V12.9401L29.4705 15.03V16.65Z" fill="#93D4F5"/>
</svg>
