<svg width="17" height="16" viewBox="0 0 17 16" fill="none" xmlns="http://www.w3.org/2000/svg">
<path fill-rule="evenodd" clip-rule="evenodd" d="M8.82935 1C10.7305 1 10.9688 1.00798 11.7155 1.04201C12.4606 1.07604 12.9693 1.19438 13.4147 1.36748C13.875 1.54631 14.2653 1.78565 14.6545 2.17484C15.0437 2.56402 15.283 2.95433 15.4619 3.41465C15.635 3.86 15.7533 4.36878 15.7873 5.11382C15.8214 5.86054 15.8293 6.09889 15.8293 8C15.8293 9.90111 15.8214 10.1395 15.7873 10.886C15.7533 11.6311 15.635 12.14 15.4619 12.5852C15.283 13.0455 15.0437 13.436 14.6545 13.8252C14.2653 14.2143 13.875 14.4535 13.4147 14.6325C12.9693 14.8056 12.4606 14.9238 11.7155 14.9578C10.9688 14.9919 10.7305 15 8.82935 15C6.92824 15 6.68988 14.9919 5.9433 14.958C5.19826 14.924 4.68934 14.8056 4.24414 14.6325C3.78381 14.4535 3.39337 14.2143 3.00418 13.8252C2.615 13.4358 2.37566 13.0455 2.19682 12.5852C2.02373 12.14 1.90553 11.6311 1.8715 10.886C1.83733 10.1395 1.82935 9.90111 1.82935 8C1.82935 6.09889 1.83719 5.86054 1.87136 5.11382C1.90539 4.36878 2.02359 3.86 2.19668 3.41465C2.37566 2.95433 2.615 2.56402 3.00432 2.17484C3.39365 1.78565 3.78395 1.54631 4.24428 1.36748C4.68948 1.19438 5.19812 1.07604 5.9433 1.04201C6.68988 1.00798 6.92824 1 8.82935 1ZM8.82935 2.26124C6.96031 2.26124 6.7389 2.26825 6.00072 2.302C5.31828 2.33309 4.94758 2.44722 4.70096 2.54301C4.37424 2.67003 4.14107 2.8217 3.89613 3.06678C3.65105 3.31158 3.49938 3.54475 3.37236 3.87162C3.27657 4.1181 3.16257 4.4888 3.13148 5.17123C3.09773 5.90955 3.09059 6.13082 3.09059 8C3.09059 9.86904 3.09773 10.0904 3.13148 10.8286C3.16257 11.5111 3.27657 11.8818 3.37236 12.1284C3.49938 12.4551 3.65105 12.6883 3.89613 12.9332C4.14107 13.1783 4.37424 13.33 4.70096 13.457C4.94758 13.5528 5.31828 13.6668 6.00072 13.6979C6.73876 13.7315 6.96003 13.7388 8.82935 13.7388C10.6987 13.7388 10.9199 13.7316 11.658 13.6979C12.3404 13.6668 12.7111 13.5528 12.9577 13.457C13.2846 13.33 13.5178 13.1783 13.7627 12.9332C14.0076 12.6883 14.1593 12.4551 14.2863 12.1284C14.3821 11.8818 14.4963 11.5111 14.5272 10.8286C14.561 10.0906 14.5681 9.86904 14.5681 8C14.5681 6.13082 14.5611 5.90955 14.5273 5.17137C14.4963 4.4888 14.3821 4.11824 14.2863 3.87162C14.1593 3.54475 14.0076 3.31158 13.7626 3.06664C13.5178 2.8217 13.2846 2.67003 12.9577 2.54301C12.7112 2.44722 12.3404 2.33309 11.658 2.302C10.9199 2.26839 10.6985 2.26124 8.82935 2.26124ZM8.83159 4.42802C10.8031 4.42802 12.4013 6.02621 12.4013 7.99776C12.4013 9.96931 10.8031 11.5675 8.83159 11.5675C6.86004 11.5675 5.26184 9.96931 5.26184 7.99776C5.26184 6.02621 6.86004 4.42802 8.83159 4.42802ZM8.83159 10.3149C10.1113 10.3149 11.1488 9.27749 11.1488 7.99776C11.1488 6.71803 10.1113 5.68058 8.83159 5.68058C7.55186 5.68058 6.5144 6.71803 6.5144 7.99776C6.5144 9.27749 7.55186 10.3149 8.83159 10.3149ZM13.3625 4.22215C13.3625 4.71511 12.9936 5.11466 12.5387 5.11466C12.0836 5.11466 11.7148 4.71511 11.7148 4.22215C11.7148 3.72919 12.0837 3.32979 12.5387 3.32979C12.9936 3.32979 13.3625 3.72933 13.3625 4.22215Z" fill="white"/>
</svg>
