<svg width="17" height="16" viewBox="0 0 17 16" fill="none" xmlns="http://www.w3.org/2000/svg">
<path d="M1.81027 7.09704L11.3409 2.9416C12.2817 2.50874 15.4722 1.1236 15.4722 1.1236C15.4722 1.1236 16.9448 0.517595 16.8221 1.98931C16.7812 2.59531 16.4539 4.71632 16.1267 7.01047L15.1041 13.8063C15.1041 13.8063 15.0223 14.8019 14.3269 14.9751C13.6316 15.1482 12.4862 14.3691 12.2817 14.1959C12.1181 14.0661 9.21391 12.1182 8.15041 11.1659C7.86408 10.9062 7.53684 10.3868 8.19131 9.78076C9.66386 8.35233 11.4227 6.57761 12.4862 5.45218C12.9771 4.93275 13.4679 3.72075 11.4227 5.19246L5.65525 9.30462C5.65525 9.30462 5.00079 9.73748 3.77366 9.34791C2.54654 8.95833 1.11489 8.4389 1.11489 8.4389C1.11489 8.4389 0.133196 7.78961 1.81027 7.09704Z" fill="white"/>
</svg>
