<svg width="80" height="36" viewBox="0 0 80 36" fill="none" xmlns="http://www.w3.org/2000/svg">
<g clip-path="url(#clip0_4101_938)">
<path d="M73.0381 10.8988C73.0997 12.6211 73.8502 13.4628 75.1638 13.4628C76.0508 13.4628 77.0819 12.9507 77.9708 12.3545L78.4444 13.2172C77.4946 14.1866 75.6171 15.2674 73.8438 15.2674C71.9238 15.2674 70.6229 13.9346 70.6229 11.4724C70.6229 7.80171 73.546 4.64324 76.8565 4.64324C78.5892 4.64324 79.393 5.52374 79.393 6.7548C79.3886 9.17015 76.3759 10.4012 73.0381 10.8988ZM75.7619 6.18129C74.5454 6.18129 73.3479 7.74032 73.0381 9.81152C75.5149 9.42221 76.8971 8.39627 76.8971 7.22659C76.8921 6.5448 76.4794 6.17644 75.7568 6.17644L75.7619 6.18129ZM76.5073 21.0529C78.24 21.0529 79.0457 21.935 79.0457 23.1661C79.0457 25.5895 76.033 26.8158 72.6889 27.3085C72.7505 29.0324 73.5009 29.8725 74.8146 29.8725C75.7016 29.8725 76.7346 29.3603 77.6216 28.7658L78.0959 29.6269C77.1473 30.5963 75.2698 31.6771 73.4946 31.6771C71.5765 31.6722 70.2768 30.3393 70.2768 27.8788C70.2768 24.2065 73.2006 21.0481 76.5022 21.0481L76.5073 21.0529ZM76.5479 23.6379C76.5479 22.9609 76.1352 22.5909 75.4108 22.5909C74.1943 22.5909 72.9975 24.15 72.687 26.2212C75.1606 25.827 76.5429 24.8011 76.5429 23.633L76.5479 23.6379ZM65.1251 14.9136L62.4225 15.1608L59.1206 6.275C58.7242 6.19819 58.3368 6.08126 57.9643 5.92602V4.88073H63.0202V5.90664C62.5728 6.07421 62.1098 6.19759 61.6381 6.275L64.1556 13.2495L66.7035 6.32021C66.2298 6.23783 65.6108 6.11505 65.2419 5.90987V4.88396H69.8222V5.92926C69.4425 6.10333 69.0394 6.22091 68.6254 6.27822L65.1251 14.9136ZM55.1447 3.14396C54.8322 3.14364 54.5269 3.05118 54.2672 2.87825C54.0076 2.70532 53.8052 2.4597 53.6859 2.17243C53.5665 1.88516 53.5354 1.56914 53.5966 1.26431C53.6578 0.959482 53.8084 0.679535 54.0295 0.459853C54.2505 0.240169 54.5321 0.090612 54.8387 0.0300874C55.1451 -0.0304369 55.4628 0.000789454 55.7515 0.119816C56.0401 0.238843 56.2869 0.440327 56.4604 0.698804C56.634 0.957278 56.7267 1.26114 56.7267 1.57198C56.7262 1.98904 56.5594 2.38888 56.2627 2.68364C55.9661 2.97839 55.564 3.14396 55.1447 3.14396ZM55.9145 5.64814C55.9145 5.85332 55.874 6.16029 55.8528 6.36549L54.7582 13.0525C54.8173 13.1167 54.8716 13.1853 54.9206 13.2576H56.6129V14.0574C55.6596 14.5647 53.7691 15.261 53.0609 15.261C52.4844 15.261 52.1952 14.8926 52.1952 14.2771C52.1952 14.0913 52.2569 13.7439 52.2781 13.5581L53.3712 6.87114L53.2088 6.66594H51.5196V5.86625C52.4681 5.3331 54.3879 4.63677 55.0472 4.63677C55.6466 4.63839 55.9145 5.02775 55.9145 5.6433V5.64814ZM45.6288 29.1713V22.8704H44.1022V21.4341H45.6288L46.8258 18.7264H47.9189V21.4341H51.0568V22.8704H47.9189V28.3635C47.9189 29.4314 48.4354 29.9032 49.3027 29.9032C49.9549 29.8887 50.6016 29.7798 51.2224 29.5801L51.4481 30.6044C50.4574 31.0567 48.8901 31.6707 47.6931 31.6707C46.2281 31.6722 45.6288 30.7917 45.6288 29.1713ZM44.1086 12.76V6.45916H42.5803V5.0229H44.1086L45.3056 2.31515H46.4019V5.0229H49.5382V6.45916H46.4019V11.9522C46.4019 13.0185 46.9184 13.4903 47.7841 13.4903C48.4364 13.4761 49.0831 13.3672 49.7038 13.1672L49.9312 14.193C48.9404 14.6438 47.3716 15.2593 46.1745 15.2593C44.7063 15.261 44.1086 14.3805 44.1086 12.76ZM40.8246 25.3957L40.4121 23.242C39.9573 22.9965 39.194 22.8123 38.286 22.8123C36.5937 22.8123 35.4178 23.9432 35.4178 26.1146C35.4178 28.6575 36.9234 29.8887 39.1728 29.8887C40.1876 29.8688 41.1919 29.6816 42.145 29.3344V30.7885C41.4645 31.1973 39.7721 31.669 38.2032 31.669C34.8201 31.669 33.1684 29.824 33.1684 26.9514C33.1684 23.5668 35.5835 21.0448 39.0283 21.0448C40.3276 21.0448 41.5669 21.4132 42.3513 21.9059C42.3324 23.0288 42.215 24.1477 42.0005 25.2502L40.8246 25.3957ZM37.5763 15.2626C37.0403 15.2626 36.7723 14.9394 36.7723 14.3805C36.7723 13.7456 37.6591 10.2575 37.6591 10.2575H37.4317C35.8076 13.8263 34.6041 15.2658 33.0368 15.2658C31.6952 15.2658 30.5811 13.8909 30.5811 11.8617C30.5811 8.08768 33.5046 4.64162 36.5661 4.64162C37.1462 4.63693 37.7213 4.74675 38.2584 4.96474C38.4201 4.6422 38.67 4.37169 38.9796 4.18441L40.3926 4.4526L39.0316 13.0686L39.194 13.2528H40.9691V14.0735C40.2822 14.4419 38.3218 15.261 37.5779 15.261L37.5763 15.2626ZM35.8011 6.13444C34.1298 6.13444 33.0157 8.55783 33.0157 10.894C33.0157 12.411 33.4088 13.3174 34.1721 13.3174C34.7698 13.3174 36.4832 10.4869 37.8037 6.63044C37.2888 6.29923 36.381 6.13444 35.8027 6.13444H35.8011ZM29.709 29.4783L29.8714 29.6624H31.6465V30.4832C30.9644 30.8531 29.0041 31.6722 28.2618 31.6722C27.7242 31.6722 27.4497 31.3491 27.4497 30.7917C27.4497 30.1552 28.3382 26.6687 28.3382 26.6687H28.1108C26.4866 30.2376 25.2831 31.6771 23.7142 31.6771C22.3743 31.6771 21.2585 30.3039 21.2585 28.273C21.2585 24.4989 24.1901 21.0529 27.2435 21.0529C27.8234 21.0489 28.3985 21.1587 28.9358 21.376C29.1013 21.0501 29.3571 20.7781 29.6732 20.5924L31.0764 20.859L29.709 29.4783ZM26.4898 22.5457C24.8186 22.5457 23.7044 24.9691 23.7044 27.3037C23.7044 28.8223 24.0959 29.727 24.8592 29.727C25.4585 29.727 27.1704 26.8965 28.4924 23.0401C27.9759 22.7089 27.0745 22.5457 26.4898 22.5457ZM22.6309 10.8988C22.6926 12.6211 23.443 13.4628 24.7569 13.4628C25.6437 13.4628 26.675 12.9507 27.5634 12.3545L28.0377 13.2172C27.0876 14.1866 25.21 15.2674 23.4364 15.2674C21.5167 15.2674 20.2157 13.9346 20.2157 11.4724C20.2157 7.80171 23.1474 4.64324 26.4493 4.64324C28.1822 4.64324 28.9862 5.52374 28.9862 6.7548C28.9862 9.17015 25.9734 10.4012 22.6309 10.8988ZM25.3546 6.18129C24.1381 6.18129 22.9411 7.74032 22.6309 9.81152C25.1077 9.42221 26.4898 8.39627 26.4898 7.22659C26.4898 6.5448 26.0773 6.17644 25.3546 6.17644V6.18129ZM20.1573 23.6572H19.1828C18.7051 23.6491 18.2321 23.7526 17.802 23.9594C17.3718 24.1662 16.9964 24.4705 16.706 24.848V29.9759C17.4391 30.0275 18.1616 30.1792 18.8531 30.4266V31.4525H12.8909V30.4056C13.389 30.2051 13.9082 30.0609 14.4387 29.9759V23.4068C13.8724 23.2947 13.3415 23.0486 12.8909 22.6895V21.8817L16.1716 21.082H16.6053L16.4429 23.7073H16.5663C17.3296 21.9027 18.2587 21.103 19.6408 21.103C19.9453 21.0905 20.2488 21.1457 20.5293 21.2646L20.1573 23.6572ZM17.765 7.24276C17.2874 7.23467 16.8146 7.33806 16.3845 7.54453C15.9543 7.75105 15.5789 8.0549 15.2881 8.43183V13.5597C16.0206 13.6129 16.7424 13.765 17.4336 14.0121V15.038H11.4697V13.9911C11.9681 13.7908 12.4872 13.6461 13.0175 13.5597V6.9972C12.4511 6.88446 11.9203 6.63783 11.4697 6.27822V5.47851L14.7521 4.67878H15.1842L15.0218 7.30415H15.1452C15.9085 5.49951 16.8375 4.69979 18.2197 4.69979C18.5242 4.68807 18.8275 4.74323 19.1081 4.86135L18.7362 7.24112L17.765 7.24276ZM5.77872 31.7142C5.1385 31.7182 4.50489 31.5855 3.92069 31.3249V34.2782C4.53488 34.3487 5.13811 34.4936 5.717 34.7096V35.7549H0V34.7096C0.502255 34.4996 1.02954 34.3546 1.56893 34.2782V23.4068C1.05245 23.3034 0.350815 22.9965 0.0211123 22.6895V21.8817L3.36199 21.0884H3.77452V22.4019C4.43555 21.9916 5.8177 21.0481 7.57181 21.0481C9.65721 21.0481 11.2667 22.5021 11.2667 25.5814C11.2683 29.4783 8.81263 31.7142 5.77872 31.7142ZM5.98498 22.9141C5.26269 22.935 4.5555 23.1248 3.92069 23.4682V29.3344C4.63679 29.7633 5.45943 29.9839 6.2952 29.971C8.06876 29.971 9.01892 28.9241 9.01892 26.6477C9.01892 24.2276 7.74717 22.9141 5.98498 22.9141ZM7.80076 8.98598L7.38825 6.83236C6.93346 6.5868 6.17014 6.40099 5.26224 6.40099C3.56988 6.40099 2.39399 7.53196 2.39399 9.70491C2.39399 12.2479 3.90121 13.479 6.15065 13.479C7.16483 13.459 8.1687 13.2717 9.12121 12.9248V14.3788C8.4407 14.7892 6.74832 15.261 5.17941 15.261C1.79631 15.261 0.144549 13.4144 0.144549 10.5434C0.144549 7.15876 2.55966 4.63677 6.0061 4.63677C7.3054 4.63677 8.54305 5.00513 9.32749 5.49789C9.30863 6.62015 9.19124 7.73861 8.9767 8.84059L7.80076 8.98598ZM54.3879 17.9089L56.1744 16.1318L57.961 17.9089L56.1744 19.6861L54.3879 17.9089ZM56.2589 21.0481C56.8582 21.0481 57.1262 21.4374 57.1262 22.053C57.1262 22.2582 57.0839 22.5651 57.0644 22.7703L55.9698 29.4573C56.0286 29.5218 56.0829 29.5904 56.1322 29.6624H57.8246V30.4621C56.8744 30.9759 54.9758 31.6722 54.2742 31.6722C53.6976 31.6722 53.4085 31.3039 53.4085 30.6884C53.4085 30.5042 53.4702 30.1552 53.4914 29.971L54.5844 23.284L54.422 23.0788H52.7361V22.2791C53.6797 21.746 55.5995 21.0481 56.2589 21.0481ZM65.2178 21.0481C66.5168 21.0481 67.7562 21.4164 68.541 21.9092C68.5219 23.032 68.4044 24.1509 68.1898 25.2534L67.014 25.3957L66.6 23.242C66.1467 22.9965 65.3835 22.8123 64.4756 22.8123C62.7831 22.8123 61.6056 23.9432 61.6056 26.1146C61.6056 28.6575 63.1128 29.8887 65.3625 29.8887C66.3771 29.8687 67.3816 29.6814 68.3346 29.3344V30.7885C67.6521 31.1973 65.96 31.669 64.3924 31.669C61.0079 31.669 59.3578 29.824 59.3578 26.9514C59.3578 23.57 61.7712 21.0481 65.2178 21.0481Z" fill="black"/>
</g>
<defs>
<clipPath id="clip0_4101_938">
<rect width="80" height="36" fill="white"/>
</clipPath>
</defs>
</svg>
